<svg xmlns="http://www.w3.org/2000/svg" width="24" height="25" viewBox="0 0 24 25" fill="none"><path d="M13.3536 4.14645L12.5 3.29289V4.5V9.5V10H13H18H19.2071L18.3536 9.14645L13.3536 4.14645ZM8 14H7.5V14.5V16.5V17H8H10.5V19.5V20H11H13H13.5V19.5V17H16H16.5V16.5V14.5V14H16H13.5V11.5V11H13H11H10.5V11.5V14H8ZM18 22H6C5.60218 22 5.22064 21.842 4.93934 21.5607C4.65804 21.2794 4.5 20.8978 4.5 20.5V4.5C4.5 4.10218 4.65804 3.72064 4.93934 3.43934C5.22064 3.15804 5.60218 3 6 3H13.7929L19.5 8.70711V20.5C19.5 20.8978 19.342 21.2794 19.0607 21.5607C18.7794 21.842 18.3978 22 18 22Z" stroke="#E14E2D"/></svg>
