<svg xmlns="http://www.w3.org/2000/svg" width="24" height="24" viewBox="0 0 24 24" fill="none"><path d="M2.77653 15.0202L2.77687 15.0208L4.77677 18.4806C4.7768 18.4807 4.77683 18.4807 4.77687 18.4808C4.84326 18.5954 4.95246 18.6791 5.08049 18.7133C5.20856 18.7475 5.34499 18.7295 5.45977 18.6631L5.45998 18.663L6.85598 17.857L7.14935 17.6876L7.41543 17.8973C7.95945 18.3259 8.56085 18.6777 9.1928 18.9403L9.50098 19.0683V19.402V21C9.50098 21.1326 9.55366 21.2598 9.64743 21.3536C9.7412 21.4473 9.86837 21.5 10.001 21.5H14.001C14.1336 21.5 14.2608 21.4473 14.3545 21.3536C14.4483 21.2598 14.501 21.1326 14.501 21V19.402V19.0686L14.8088 18.9404C15.4461 18.6751 16.0443 18.3241 16.5867 17.8971L16.8528 17.6877L17.146 17.857L18.5417 18.6628C18.7797 18.8 19.0882 18.7169 19.2251 18.4808L2.77653 15.0202ZM2.77653 15.0202C2.63953 14.7839 2.72191 14.475 2.95911 14.3379L2.95919 14.3379L4.33119 13.5449L4.6248 13.3752L4.57572 13.0396C4.47487 12.3502 4.47487 11.6498 4.57572 10.9604L4.6248 10.6248L4.33119 10.4551L2.96109 9.66321C2.96082 9.66306 2.96056 9.6629 2.96029 9.66274C2.8459 9.59567 2.76254 9.48621 2.7283 9.35807C2.69405 9.22991 2.71172 9.09343 2.77745 8.97822C2.77758 8.97798 2.77772 8.97773 2.77786 8.97749L4.77687 5.51922L4.77702 5.51896C4.80981 5.46215 4.85348 5.41236 4.90554 5.37244C4.95759 5.33252 5.017 5.30326 5.08038 5.28633C5.14375 5.26939 5.20984 5.26512 5.27487 5.27375C5.33989 5.28239 5.40258 5.30376 5.45934 5.33664L5.45984 5.33693L6.85484 6.14293L7.14809 6.31237L7.41422 6.1029C7.95669 5.67593 8.55485 5.32493 9.19216 5.05959L9.49998 4.93143V4.598V3C9.49998 2.86739 9.55266 2.74021 9.64643 2.64645C9.7402 2.55268 9.86737 2.5 9.99998 2.5H14C14.1326 2.5 14.2598 2.55268 14.3535 2.64645C14.4473 2.74021 14.5 2.86739 14.5 3V4.598V4.9317L14.8081 5.05973C15.4451 5.32439 16.0428 5.67526 16.5843 6.10253L16.8504 6.31251L17.144 6.14301L18.54 5.33701L18.5402 5.33689C18.655 5.27055 18.7914 5.2525 18.9195 5.28673C19.0476 5.32095 19.1568 5.40464 19.2232 5.51939L21.2231 8.97922L21.2234 8.9798C21.3604 9.21609 21.2781 9.52503 21.0409 9.66206L21.0408 9.66211L19.6688 10.4551L19.3749 10.625L19.4243 10.9608C19.5258 11.6501 19.5264 12.3506 19.4262 13.0401L19.3774 13.3754L19.6708 13.5449L21.0409 14.3368C21.0411 14.3369 21.0414 14.3371 21.0416 14.3372C21.156 14.4043 21.2394 14.5138 21.2737 14.6419C21.3079 14.7701 21.2902 14.9066 21.2245 15.0218C21.2244 15.022 21.2242 15.0223 21.2241 15.0225L19.2253 18.4805L2.77653 15.0202ZM16.5 12C16.5 9.51786 14.4821 7.5 12 7.5C9.51784 7.5 7.49998 9.51786 7.49998 12C7.49998 14.4821 9.51784 16.5 12 16.5C14.4821 16.5 16.5 14.4821 16.5 12Z" stroke="#E14E2D"/></svg>
