<svg xmlns="http://www.w3.org/2000/svg" width="32" height="32" viewBox="0 0 32 32" fill="none"><path d="M27.5 11.4999H25.3334H24.8334V11.9999V22.6666V23.1666H25.3334H27.5V27.4999H3.16669V23.1666H5.33335H5.83335V22.6666V11.9999V11.4999H5.33335H3.16669L3.16669 9.33328L3.16669 9.33305C3.16661 9.17819 3.2097 9.02637 3.29109 8.89463C3.37249 8.76289 3.48899 8.65643 3.62752 8.58721L3.62761 8.58717L14.6446 3.07933L27.005 8.57154L27.0056 8.57181C27.1529 8.63702 27.2781 8.74365 27.3659 8.87873C27.4536 9.0138 27.5003 9.17147 27.5 9.33256V9.33328V11.4999ZM21.8334 11.9999V11.4999H21.3334H17.3334H16.8334V11.9999V22.6666V23.1666H17.3334H21.3334H21.8334V22.6666V11.9999ZM9.33335 11.4999H8.83335V11.9999V22.6666V23.1666H9.33335H13.3334H13.8334V22.6666V11.9999V11.4999H13.3334H9.33335Z" stroke="#141414"/></svg>
