<svg xmlns="http://www.w3.org/2000/svg" width="24" height="24" viewBox="0 0 24 24" fill="none"><path d="M13 8C13 9.92986 11.4299 11.5 9.5 11.5C7.57014 11.5 6 9.92986 6 8C6 6.07014 7.57014 4.5 9.5 4.5C11.4299 4.5 13 6.07014 13 8ZM2.5 19C2.5 15.9671 4.96714 13.5 8 13.5H11C14.0329 13.5 16.5 15.9671 16.5 19V19.5H2.5V19Z" stroke="#E14E2D"/><path d="M16.1728 10.7949L15.8988 11.2619L16.386 11.498C19.3008 12.9104 20.3139 15.7408 20.4759 17.5H19.4617C19.4041 17.0313 19.2607 16.2846 18.9038 15.4772C18.3167 14.149 17.1464 12.6513 14.8599 11.9812C14.8598 11.9812 14.8598 11.9812 14.8598 11.9812C14.8597 11.9812 14.8597 11.9812 14.8596 11.9812L14.0505 11.7436L14.6454 11.1487C14.6456 11.1485 14.6458 11.1483 14.646 11.1481C15.0877 10.7091 15.4261 10.1771 15.6366 9.59093C15.8471 9.00447 15.9243 8.37846 15.8625 7.75843L15.8625 7.75804C15.7429 6.56723 15.119 5.50379 14.128 4.71192L14.6823 3.87609C15.953 4.86005 16.7101 6.18841 16.8575 7.65792L16.8575 7.6583C16.9679 8.75003 16.7281 9.84856 16.1728 10.7949Z" stroke="#E14E2D"/></svg>
