<svg xmlns="http://www.w3.org/2000/svg" width="32" height="32" viewBox="0 0 32 32" fill="none"><path d="M17.5 10.6666C17.5 13.3318 15.3319 15.5 12.6667 15.5C10.0015 15.5 7.83335 13.3318 7.83335 10.6666C7.83335 8.00146 10.0015 5.83331 12.6667 5.83331C15.3319 5.83331 17.5 8.00146 17.5 10.6666ZM3.16669 25.3333C3.16669 21.1975 6.53083 17.8333 10.6667 17.8333H14.6667C18.8025 17.8333 22.1667 21.1975 22.1667 25.3333V26.1666H3.16669V25.3333Z" stroke="#141414"/><path d="M21.7074 14.4776L21.4335 14.9445L21.9206 15.1806C25.9766 17.1461 27.316 21.1304 27.4818 23.5H25.8001C25.7379 22.9059 25.5601 21.8516 25.0527 20.7037C24.2851 18.9673 22.7581 17.0116 19.7662 16.1349C19.7661 16.1349 19.7661 16.1349 19.766 16.1349C19.766 16.1349 19.766 16.1348 19.7659 16.1348L18.4175 15.739L19.4097 14.7467C19.41 14.7465 19.4102 14.7463 19.4104 14.746C19.9819 14.1781 20.4197 13.4899 20.6919 12.7316C20.9643 11.973 21.0641 11.1632 20.9842 10.3611L20.9842 10.3607C20.8251 8.77619 19.9741 7.3597 18.6132 6.3189L19.5357 4.92803C21.3485 6.2752 22.4354 8.13012 22.6425 10.1939L22.6426 10.1943C22.7933 11.6851 22.4658 13.1853 21.7074 14.4776Z" stroke="#141414"/></svg>
