<svg xmlns="http://www.w3.org/2000/svg" width="32" height="32" viewBox="0 0 32 32" fill="none"><path d="M22.1667 7.99996V8.49996H22.6667H26.6667C27.8612 8.49996 28.8334 9.4721 28.8334 10.6666V15.5H23.1667V13.3333V12.8333H22.6667H20H19.5V13.3333V15.5H12.5V13.3333V12.8333H12H9.33335H8.83335V13.3333V15.5H3.16669V10.6666C3.16669 9.4721 4.13883 8.49996 5.33335 8.49996H9.33335H9.83335V7.99996V5.33329C9.83335 4.13877 10.8055 3.16663 12 3.16663H20C21.1945 3.16663 22.1667 4.13877 22.1667 5.33329V7.99996ZM12 4.83329H11.5V5.33329V7.99996V8.49996H12H20H20.5V7.99996V5.33329V4.83329H20H12ZM22.6667 20.5H23.1667V20V17.8333H28.8334V25.3333C28.8334 26.5278 27.8612 27.5 26.6667 27.5H5.33335C4.13883 27.5 3.16669 26.5278 3.16669 25.3333V17.8333H8.83335V20V20.5H9.33335H12H12.5V20V17.8333H19.5V20V20.5H20H22.6667Z" stroke="#141414"/></svg>
