<svg xmlns="http://www.w3.org/2000/svg" width="24" height="24" viewBox="0 0 24 24" fill="none"><path d="M3.5 12V12.5H4H7.77258C8.38956 14.2425 10.0402 15.5 12 15.5C13.9598 15.5 15.6104 14.2425 16.2274 12.5H19H20H20.5V12V5V4.5H20H4H3.5V5V12ZM4 3.5H20C20.8269 3.5 21.5 4.17314 21.5 5V19C21.5 19.3978 21.342 19.7794 21.0607 20.0607C20.7794 20.342 20.3978 20.5 20 20.5H4C3.60218 20.5 3.22064 20.342 2.93934 20.0607C2.65804 19.7794 2.5 19.3978 2.5 19V5C2.5 4.17314 3.17314 3.5 4 3.5Z" stroke="#E14E2D"/></svg>
