<svg xmlns="http://www.w3.org/2000/svg" width="24" height="25" viewBox="0 0 24 25" fill="none"><path d="M19.5 19.8789L16.7991 17.1779C17.2576 16.3623 17.5001 15.4403 17.5 14.5L19.5 19.8789ZM19.5 19.8789V8.70711L13.7929 3H6C5.60218 3 5.22064 3.15804 4.93934 3.43934C4.65804 3.72064 4.5 4.10218 4.5 4.5V20.5C4.5 20.8978 4.65804 21.2794 4.93934 21.5607C5.22064 21.842 5.60218 22 6 22H17.3789M19.5 19.8789L17.3789 22M17.3789 22L14.6779 19.299C13.8622 19.7575 12.9403 20 12 20C8.96686 20 6.5 17.5331 6.5 14.5C6.5 11.4669 8.96686 9 12 9C15.0331 9 17.5 11.4668 17.5 14.4999L17.3789 22Z" stroke="#E14E2D"/><path d="M14.5 14.5C14.5 15.8807 13.3807 17 12 17C10.6193 17 9.5 15.8807 9.5 14.5C9.5 13.1193 10.6193 12 12 12C13.3807 12 14.5 13.1193 14.5 14.5Z" stroke="#E14E2D"/></svg>
